# xmcd CD database file
#
# Track frame offsets:
#	150
#	22979
#	47791
#	71486
#	96503
#	120082
#	143119
#	163279
#	172833
#	189109
#	215182
#	237794
#
# Disc length: 3346 seconds
#
# Revision: 0
# Processed by: cddbd v1.5.2PL0 Copyright (c) Steve Scherf et al.
# Submitted via: CDex 1.70beta2
#
DISCID=9f0d100c
DTITLE=Camilleri, Andrea - Liebe und Bruederlichkeit
DYEAR=1998
DGENRE=Hoerbuch
TTITLE0=01 Liebe und Bruederlichkeit
TTITLE1=02 Liebe und Bruederlichkeit
TTITLE2=03 Liebe und Bruederlichkeit
TTITLE3=04 Liebe und Bruederlichkeit
TTITLE4=05 Liebe und Bruederlichkeit
TTITLE5=06 Liebe und Bruederlichkeit
TTITLE6=07 Liebe und Bruederlichkeit
TTITLE7=08 Liebe und Bruederlichkeit
TTITLE8=09 Liebe und Bruederlichkeit
TTITLE9=10 Liebe und Bruederlichkeit
TTITLE10=11 Liebe und Bruederlichkeit
TTITLE11=12 Liebe und Bruederlichkeit
EXTD=YEAR: 1998
EXTT0=
EXTT1=
EXTT2=
EXTT3=
EXTT4=
EXTT5=
EXTT6=
EXTT7=
EXTT8=
EXTT9=
EXTT10=
EXTT11=
PLAYORDER=
